<svg width="81" height="52" viewBox="0 0 81 52" fill="none" xmlns="http://www.w3.org/2000/svg">
<path fill-rule="evenodd" clip-rule="evenodd" d="M47.5888 4.81781C47.5958 4.38339 47.82 3.96275 48.23 3.61476C48.6399 3.26677 49.2151 3.00884 49.8751 2.87707C50.5351 2.7453 51.2468 2.74629 51.9106 2.87989C52.5745 3.01348 53.1573 3.27301 53.5774 3.62215L76.5788 22.6951C77.0276 23.0671 77.2667 23.5206 77.2586 23.9838C77.2505 24.4471 76.9954 24.8937 76.5339 25.253L52.8732 43.6743C52.441 44.0115 51.8494 44.2547 51.1811 44.3697C50.5129 44.4847 49.8015 44.4658 49.1465 44.3156C48.4915 44.1655 47.9256 43.8916 47.5281 43.5324C47.1306 43.1731 46.9213 42.7464 46.9296 42.312L47.0757 34.0008C29.1434 33.9837 20.4935 35.9902 16.1266 38.242C11.975 40.3821 11.1763 42.9566 10.3454 45.6536L10.1298 46.3486C9.97149 46.8458 9.52725 47.2876 8.88068 47.591C8.23411 47.8943 7.4298 48.0383 6.61905 47.9957C5.8083 47.9532 5.04702 47.727 4.47842 47.3599C3.90982 46.9928 3.5731 46.5099 3.53162 46.0022C3.06232 40.2701 4.06474 31.9876 10.6561 25.1394C17.0539 18.4927 28.4538 13.4722 47.4415 13.1957L47.5888 4.81781Z" fill="#538DFF"/>
</svg>
