<svg width="197" height="95" viewBox="0 0 197 95" fill="none" xmlns="http://www.w3.org/2000/svg">
<g clip-path="url(#clip0_103_68)">
<path d="M141.655 37.3972C140.9 37.0339 140.004 36.7457 139.018 36.5492C138.032 36.3526 136.975 36.2515 135.907 36.2516C134.839 36.2518 133.782 36.3532 132.796 36.55C131.81 36.7469 130.914 37.0353 130.16 37.3988L98.5325 52.6124L66.8973 37.4076C65.3728 36.6749 63.3053 36.2634 61.1496 36.2637C58.9939 36.264 56.9266 36.6761 55.4025 37.4092C53.8783 38.1424 53.0223 39.1366 53.0225 40.1731C53.0228 41.2096 53.8794 42.2036 55.4039 42.9363L92.828 60.9234C93.5823 61.2867 94.4782 61.5749 95.4645 61.7715C96.4507 61.968 97.508 62.0691 98.5757 62.069C99.6434 62.0688 100.701 61.9674 101.687 61.7706C102.673 61.5737 103.569 61.2853 104.323 60.9218L141.738 42.9242C144.835 41.4342 144.834 38.9255 141.655 37.3972Z" fill="white"/>
</g>
<defs>
<clipPath id="clip0_103_68">
<rect width="94.0777" height="195.657" fill="white" transform="matrix(0.00025771 1 -1 0.000139855 196.348 0.89502)"/>
</clipPath>
</defs>
</svg>
