<svg width="60" height="60" viewBox="0 0 60 60" fill="none" xmlns="http://www.w3.org/2000/svg">
<g clip-path="url(#clip0_19_83)">
<path d="M41.2502 22.5C41.2502 25.4837 40.0649 28.3452 37.9552 30.455C35.8454 32.5647 32.9839 33.75 30.0002 33.75C27.0165 33.75 24.155 32.5647 22.0452 30.455C19.9354 28.3452 18.7501 25.4837 18.7501 22.5C18.7501 19.5163 19.9354 16.6548 22.0452 14.545C24.155 12.4353 27.0165 11.25 30.0002 11.25C32.9839 11.25 35.8454 12.4353 37.9552 14.545C40.0649 16.6548 41.2502 19.5163 41.2502 22.5Z" fill="white"/>
<path fill-rule="evenodd" clip-rule="evenodd" d="M0 30C0 22.0435 3.16072 14.4129 8.78683 8.7868C14.4129 3.16071 22.0436 0 30.0001 0C37.9566 0 45.5873 3.16071 51.2134 8.7868C56.8395 14.4129 60.0002 22.0435 60.0002 30C60.0002 37.9565 56.8395 45.5871 51.2134 51.2132C45.5873 56.8393 37.9566 60 30.0001 60C22.0436 60 14.4129 56.8393 8.78683 51.2132C3.16072 45.5871 0 37.9565 0 30ZM30.0001 3.75C25.0568 3.75026 20.214 5.14636 16.0291 7.7776C11.8442 10.4088 8.48734 14.1683 6.34489 18.6232C4.20244 23.0782 3.36146 28.0475 3.91876 32.9593C4.47606 37.8712 6.40897 42.5258 9.49504 46.3875C12.1575 42.0975 18.0188 37.5 30.0001 37.5C41.9814 37.5 47.8389 42.0938 50.5052 46.3875C53.5913 42.5258 55.5242 37.8712 56.0815 32.9593C56.6388 28.0475 55.7978 23.0782 53.6554 18.6232C51.5129 14.1683 48.1561 10.4088 43.9712 7.7776C39.7863 5.14636 34.9435 3.75026 30.0001 3.75Z" fill="white"/>
</g>
<defs>
<clipPath id="clip0_19_83">
<rect width="60.0002" height="60" fill="white"/>
</clipPath>
</defs>
</svg>
